<svg width="658" height="423" viewBox="0 0 658 423" fill="none" xmlns="http://www.w3.org/2000/svg">
<g clip-path="url(#clip0)">
<path d="M653.199 0H0V422.904H653.199V0Z" fill="white"/>
<path d="M0 329.978L250.564 212.066L259.039 168.424L0 329.97V329.978Z" fill="#20252D"/>
<path d="M0 329.95L125.372 212.427L250.744 94.9039L251.715 0.0020752H0.482835L0 292.953V329.95Z" fill="#20252D"/>
<path d="M259.041 168.423L250.743 94.9017L403.547 211.645L395.718 252.754L259.041 168.423Z" fill="#20252D"/>
<path d="M403.237 328.315L653.58 94.4838V94.1718L395.718 252.753L403.237 328.315Z" fill="#20252D"/>
<path d="M403.965 422.905L403.235 328.317L250.564 212.064L250.179 422.905H403.965Z" fill="#20252D"/>
<path d="M403.549 211.645L653.58 94.0282V0H578.713L402.646 0.187167L403.549 211.645Z" fill="#20252D"/>
</g>
<defs>
<clipPath id="clip0">
<rect width="657.386" height="422.904" rx="8" fill="white"/>
</clipPath>
</defs>
</svg>
